<svg width="40" height="40" viewBox="0 0 40 40" fill="none" xmlns="http://www.w3.org/2000/svg">
<path d="M31.1116 18.4392L13.3111 0.639019C12.8994 0.22699 12.3498 0 11.7638 0C11.1778 0 10.6282 0.22699 10.2165 0.639019L8.9056 1.94958C8.0526 2.80355 8.0526 4.19151 8.9056 5.04419L23.8531 19.9917L8.88902 34.9558C8.47732 35.3678 8.25 35.9171 8.25 36.5028C8.25 37.0891 8.47732 37.6384 8.88902 38.0507L10.1999 39.361C10.6119 39.773 11.1612 40 11.7472 40C12.3332 40 12.8828 39.773 13.2945 39.361L31.1116 21.5445C31.5243 21.1312 31.7509 20.5793 31.7496 19.9927C31.7509 19.4037 31.5243 18.8522 31.1116 18.4392Z" fill="white"/>
</svg>
