<svg width="14" height="14" viewBox="0 0 14 14" fill="none" xmlns="http://www.w3.org/2000/svg">
<g clip-path="url(#clip0_73_259)">
<path d="M12.1886 0.823486H10.9533V2.05878C10.9533 2.30584 10.7474 2.47055 10.5415 2.47055C10.3356 2.47055 10.1298 2.30584 10.1298 2.05878V0.823486H3.54152V2.05878C3.54152 2.30584 3.33564 2.47055 3.12976 2.47055C2.92387 2.47055 2.71799 2.30584 2.71799 2.05878V0.823486H1.4827C0.86505 0.823486 0.412109 1.35878 0.412109 2.05878V3.54113H13.5886V2.05878C13.5886 1.35878 12.8474 0.823486 12.1886 0.823486ZM0.412109 4.40584V11.9411C0.412109 12.6823 0.865051 13.1764 1.52387 13.1764H12.2298C12.8886 13.1764 13.6298 12.6411 13.6298 11.9411V4.40584H0.412109ZM4.07681 11.3235H3.08858C2.92387 11.3235 2.75917 11.2 2.75917 10.9941V9.96466C2.75917 9.79996 2.8827 9.63525 3.08858 9.63525H4.11799C4.2827 9.63525 4.4474 9.75878 4.4474 9.96466V10.9941C4.40623 11.2 4.2827 11.3235 4.07681 11.3235ZM4.07681 7.6176H3.08858C2.92387 7.6176 2.75917 7.49408 2.75917 7.28819V6.25878C2.75917 6.09407 2.8827 5.92937 3.08858 5.92937H4.11799C4.2827 5.92937 4.4474 6.0529 4.4474 6.25878V7.28819C4.40623 7.49408 4.2827 7.6176 4.07681 7.6176ZM7.37093 11.3235H6.34152C6.17681 11.3235 6.01211 11.2 6.01211 10.9941V9.96466C6.01211 9.79996 6.13564 9.63525 6.34152 9.63525H7.37093C7.53564 9.63525 7.70034 9.75878 7.70034 9.96466V10.9941C7.70034 11.2 7.57681 11.3235 7.37093 11.3235ZM7.37093 7.6176H6.34152C6.17681 7.6176 6.01211 7.49408 6.01211 7.28819V6.25878C6.01211 6.09407 6.13564 5.92937 6.34152 5.92937H7.37093C7.53564 5.92937 7.70034 6.0529 7.70034 6.25878V7.28819C7.70034 7.49408 7.57681 7.6176 7.37093 7.6176ZM10.665 11.3235H9.63564C9.47093 11.3235 9.30623 11.2 9.30623 10.9941V9.96466C9.30623 9.79996 9.42976 9.63525 9.63564 9.63525H10.665C10.8298 9.63525 10.9945 9.75878 10.9945 9.96466V10.9941C10.9945 11.2 10.8709 11.3235 10.665 11.3235ZM10.665 7.6176H9.63564C9.47093 7.6176 9.30623 7.49408 9.30623 7.28819V6.25878C9.30623 6.09407 9.42976 5.92937 9.63564 5.92937H10.665C10.8298 5.92937 10.9945 6.0529 10.9945 6.25878V7.28819C10.9945 7.49408 10.8709 7.6176 10.665 7.6176Z" fill="#70B55C"/>
</g>
<defs>
<clipPath id="clip0_73_259">
<rect width="14" height="14" fill="white"/>
</clipPath>
</defs>
</svg>
