<svg width="22" height="22" viewBox="0 0 22 22" fill="none" xmlns="http://www.w3.org/2000/svg">
<g clip-path="url(#clip0_73_459)">
<path d="M18.777 3.22065C14.4806 -1.07446 7.51577 -1.07343 3.22065 3.22302C-1.07446 7.51946 -1.07343 14.4843 3.22302 18.7794C7.51946 23.0745 14.4843 23.0735 18.7794 18.777C19.8007 17.7554 20.6107 16.5427 21.1633 15.208C21.7159 13.8733 22.0002 12.4429 22 10.9983C21.9998 9.5538 21.7151 8.12345 21.1621 6.78895C20.6091 5.45445 19.7986 4.24194 18.777 3.22065ZM16.6591 15.3229L16.6577 15.3243V15.3207L16.1003 15.8743C15.7459 16.2332 15.3049 16.4947 14.82 16.6334C14.3351 16.7721 13.8226 16.7835 13.332 16.6663C12.3267 16.3973 11.3711 15.969 10.5013 15.3977C9.69323 14.8813 8.9444 14.2775 8.26832 13.5973C7.64628 12.9798 7.0874 12.3018 6.59997 11.5733C6.06682 10.7895 5.64481 9.93563 5.34597 9.036C5.178 8.51783 5.15764 7.96311 5.28716 7.43401C5.41669 6.90492 5.69099 6.42234 6.07932 6.04035L6.73197 5.3877C6.91343 5.20542 7.20828 5.20478 7.39051 5.38623L7.39197 5.3877L9.45263 7.44835C9.6349 7.62981 9.63554 7.92466 9.45409 8.10689L9.45263 8.10835L8.24263 9.31835C7.89544 9.66175 7.85178 10.2075 8.13997 10.6017C8.57762 11.2023 9.0619 11.7675 9.58832 12.292C10.1752 12.8815 10.8133 13.4177 11.495 13.8944C11.8889 14.1691 12.4229 14.1228 12.7636 13.7844L13.9333 12.5964C14.1147 12.4141 14.4096 12.4135 14.5918 12.5949L14.5933 12.5964L16.6576 14.6644C16.8399 14.8458 16.8406 15.1406 16.6591 15.3229Z" fill="#70B55C"/>
</g>
<defs>
<clipPath id="clip0_73_459">
<rect width="22" height="22" fill="white"/>
</clipPath>
</defs>
</svg>
