<svg width="28" height="28" viewBox="0 0 28 28" fill="none" xmlns="http://www.w3.org/2000/svg">
<path d="M23.898 4.09901C18.4299 -1.3675 9.56552 -1.36618 4.09901 4.10202C-1.3675 9.57022 -1.36618 18.4345 4.10202 23.901C9.57022 29.3675 18.4345 29.3662 23.901 23.898C25.2009 22.5978 26.2319 21.0543 26.9352 19.3556C27.6385 17.657 28.0003 15.8364 28 13.9979C27.9998 12.1594 27.6374 10.3389 26.9335 8.64048C26.2297 6.94203 25.1982 5.39884 23.898 4.09901ZM21.2025 19.5019L21.2007 19.5037V19.4991L20.4913 20.2037C20.0402 20.6605 19.479 20.9932 18.8618 21.1698C18.2446 21.3463 17.5924 21.3608 16.968 21.2117C15.6886 20.8693 14.4723 20.3242 13.3653 19.5971C12.3368 18.9398 11.3838 18.1714 10.5233 17.3057C9.73163 16.5198 9.02033 15.6569 8.39997 14.7297C7.72141 13.7321 7.18431 12.6453 6.80397 11.5004C6.59018 10.8409 6.56427 10.1349 6.72912 9.46147C6.89397 8.78808 7.24307 8.17388 7.73732 7.68772L8.56797 6.85707C8.79891 6.62508 9.17418 6.62426 9.40611 6.85521L9.40797 6.85707L12.0306 9.47972C12.2626 9.71066 12.2634 10.0859 12.0325 10.3179L12.0306 10.3197L10.4906 11.8597C10.0487 12.2968 9.99318 12.9913 10.36 13.4931C10.917 14.2575 11.5333 14.9768 12.2033 15.6444C12.9503 16.3946 13.7624 17.0771 14.63 17.6838C15.1313 18.0334 15.8109 17.9745 16.2446 17.5438L17.7333 16.0318C17.9642 15.7998 18.3395 15.799 18.5714 16.0299L18.5733 16.0318L21.2006 18.6638C21.4327 18.8947 21.4335 19.2699 21.2025 19.5019Z" fill="#70B55C"/>
</svg>
