<svg width="31" height="30" viewBox="0 0 31 30" fill="none" xmlns="http://www.w3.org/2000/svg">
<path d="M29.8642 15C29.8642 23.0635 23.4271 29.5896 15.4996 29.5896C7.57209 29.5896 1.13503 23.0635 1.13503 15C1.13503 6.93653 7.57209 0.410417 15.4996 0.410417C23.4271 0.410417 29.8642 6.93653 29.8642 15Z" stroke="#333333" stroke-width="0.820833"/>
<path d="M23.6001 10.9935C23.411 10.2797 22.8566 9.71696 22.1536 9.52474C20.8692 9.16797 15.7317 9.16797 15.7317 9.16797C15.7317 9.16797 10.5943 9.16797 9.30994 9.51122C8.62042 9.70324 8.05253 10.2798 7.86339 10.9935C7.52539 12.2973 7.52539 15.0013 7.52539 15.0013C7.52539 15.0013 7.52539 17.7189 7.86339 19.0091C8.05271 19.7228 8.6069 20.2856 9.31004 20.4778C10.6078 20.8346 15.7319 20.8346 15.7319 20.8346C15.7319 20.8346 20.8692 20.8346 22.1536 20.4914C22.8567 20.2993 23.411 19.7366 23.6003 19.0228C23.9382 17.7189 23.9382 15.015 23.9382 15.015C23.9382 15.015 23.9517 12.2973 23.6001 10.9935ZM14.0959 17.4993V12.5033L18.3681 15.0013L14.0959 17.4993Z" fill="#333333"/>
</svg>
