<svg width="31" height="30" viewBox="0 0 31 30" fill="none" xmlns="http://www.w3.org/2000/svg">
<path d="M30.0029 15C30.0029 23.0635 23.5658 29.5896 15.6383 29.5896C7.71077 29.5896 1.2737 23.0635 1.2737 15C1.2737 6.93653 7.71077 0.410417 15.6383 0.410417C23.5658 0.410417 30.0029 6.93653 30.0029 15Z" stroke="#333333" stroke-width="0.820833"/>
<path d="M22.2056 21.6663V16.783C22.2056 14.383 21.6967 12.5497 18.9387 12.5497C17.6089 12.5497 16.7224 13.283 16.3613 13.983H16.3284V12.7663H13.7182V21.6663H16.4433V17.2497C16.4433 16.083 16.6568 14.9663 18.0686 14.9663C19.464 14.9663 19.4804 16.283 19.4804 17.3163V21.6497H22.2056V21.6663ZM9.28568 12.7663H12.0108V21.6663H9.28568V12.7663ZM10.6483 8.33301C9.77818 8.33301 9.07227 9.04967 9.07227 9.93301C9.07227 10.8163 9.77818 11.5497 10.6483 11.5497C11.5183 11.5497 12.2243 10.8163 12.2243 9.93301C12.2243 9.04967 11.5183 8.33301 10.6483 8.33301Z" fill="#333333"/>
</svg>
