<svg width="30" height="30" viewBox="0 0 30 30" fill="none" xmlns="http://www.w3.org/2000/svg">
<path d="M29.5888 15C29.5888 23.0635 23.1517 29.5896 15.2242 29.5896C7.2967 29.5896 0.859635 23.0635 0.859635 15C0.859635 6.93653 7.2967 0.410417 15.2242 0.410417C23.1517 0.410417 29.5888 6.93653 29.5888 15Z" stroke="#333333" stroke-width="0.820833"/>
<path d="M22.5706 11.9101C22.536 11.113 22.409 10.5651 22.2271 10.0903C22.0395 9.58632 21.7509 9.13512 21.3728 8.76002C21.0033 8.37908 20.5559 8.08307 20.0652 7.89559C19.5949 7.71098 19.058 7.58205 18.2729 7.54694C17.482 7.50879 17.2309 7.5 15.2249 7.5C13.2189 7.5 12.9678 7.50879 12.1798 7.54395C11.3948 7.57912 10.8551 7.70811 10.3875 7.8926C9.89097 8.08307 9.44653 8.37609 9.07705 8.76002C8.70183 9.13509 8.4104 9.58928 8.22559 10.0874C8.04375 10.5651 7.91678 11.1101 7.88218 11.9071C7.84463 12.7101 7.83594 12.965 7.83594 15.0015C7.83594 17.038 7.84463 17.293 7.87923 18.0929C7.91387 18.89 8.04092 19.4379 8.22279 19.9127C8.4104 20.4167 8.70183 20.8679 9.07705 21.243C9.44653 21.6239 9.89391 21.9199 10.3846 22.1074C10.8551 22.292 11.3919 22.4209 12.177 22.456C12.9649 22.4913 13.2161 22.5 15.2221 22.5C17.2281 22.5 17.4792 22.4913 18.2672 22.456C19.0522 22.4209 19.5919 22.292 20.0595 22.1074C20.5506 21.9146 20.9965 21.6198 21.3688 21.2419C21.7411 20.864 22.0315 20.4112 22.2214 19.9127C22.4032 19.435 22.5302 18.8899 22.5648 18.0929C22.5995 17.293 22.6081 17.038 22.6081 15.0015C22.6081 12.965 22.6052 12.71 22.5706 11.9101ZM21.2401 18.0343C21.2083 18.7669 21.0871 19.1625 20.9861 19.4262C20.7378 20.0797 20.2269 20.5983 19.5832 20.8504C19.3235 20.9529 18.931 21.076 18.2122 21.1081C17.4329 21.1434 17.1992 21.1521 15.2279 21.1521C13.2565 21.1521 13.0198 21.1434 12.2433 21.1081C11.5217 21.076 11.1321 20.9529 10.8723 20.8504C10.552 20.7302 10.2605 20.5397 10.0238 20.2906C9.77846 20.0474 9.59085 19.7544 9.47245 19.4292C9.37143 19.1655 9.25023 18.7669 9.21857 18.0373C9.18382 17.2461 9.17528 17.0087 9.17528 15.0073C9.17528 13.0059 9.18382 12.7657 9.21857 11.9775C9.25023 11.2449 9.37143 10.8493 9.47245 10.5856C9.59085 10.2603 9.77846 9.96436 10.0267 9.72402C10.2662 9.47494 10.5548 9.28448 10.8753 9.16442C11.135 9.06186 11.5276 8.93879 12.2463 8.90653C13.0256 8.87137 13.2594 8.86258 15.2307 8.86258C17.205 8.86258 17.4387 8.87137 18.2152 8.90653C18.9368 8.93882 19.3264 9.06183 19.5862 9.16439C19.9065 9.28448 20.1981 9.47494 20.4347 9.72402C20.68 9.96726 20.8677 10.2603 20.9861 10.5856C21.0871 10.8493 21.2083 11.2478 21.2401 11.9775C21.2747 12.7687 21.2833 13.0059 21.2833 15.0073C21.2833 17.0087 21.2747 17.2432 21.2401 18.0343Z" fill="#333333"/>
<path d="M15.2252 11.1481C13.1298 11.1481 11.4297 12.874 11.4297 15.0014C11.4297 17.1288 13.1298 18.8547 15.2252 18.8547C17.3207 18.8547 19.0207 17.1288 19.0207 15.0014C19.0207 12.874 17.3207 11.1481 15.2252 11.1481ZM15.2252 17.5009C13.8658 17.5009 12.7631 16.3816 12.7631 15.0014C12.7631 13.6212 13.8658 12.5019 15.2252 12.5019C16.5847 12.5019 17.6872 13.6212 17.6872 15.0014C17.6872 16.3816 16.5847 17.5009 15.2252 17.5009ZM20.0569 10.9957C20.0569 11.4925 19.6602 11.8953 19.1707 11.8953C18.6814 11.8953 18.2847 11.4925 18.2847 10.9957C18.2847 10.4989 18.6814 10.0962 19.1708 10.0962C19.6602 10.0962 20.0569 10.4988 20.0569 10.9957Z" fill="#333333"/>
</svg>
