<svg width="30" height="30" viewBox="0 0 30 30" fill="none" xmlns="http://www.w3.org/2000/svg">
<path d="M29.1396 15C29.1396 23.0635 22.7025 29.5896 14.775 29.5896C6.84749 29.5896 0.410417 23.0635 0.410417 15C0.410417 6.93653 6.84749 0.410417 14.775 0.410417C22.7025 0.410417 29.1396 6.93653 29.1396 15Z" stroke="#333333" stroke-width="0.820833"/>
<path d="M15.8754 22.2526V15.5237H18.0489L18.375 12.9006H15.8754V11.2261C15.8754 10.4669 16.0775 9.9495 17.1269 9.9495L18.463 9.94893V7.6027C18.232 7.57151 17.4388 7.5 16.5156 7.5C14.5878 7.5 13.268 8.72223 13.268 10.9663V12.9006H11.0879V15.5237H13.268V22.2526H15.8754Z" fill="#333333"/>
</svg>
