<svg width="31" height="30" viewBox="0 0 31 30" fill="none" xmlns="http://www.w3.org/2000/svg">
<path d="M23.6973 9.91147C23.0962 10.1792 22.4557 10.3566 21.7879 10.4428C22.4749 10.0263 22.9992 9.37198 23.2457 8.58326C22.6052 8.97096 21.898 9.2448 21.1444 9.39762C20.5362 8.74019 19.6694 8.33301 18.7238 8.33301C16.8892 8.33301 15.4122 9.8448 15.4122 11.6981C15.4122 11.9648 15.4344 12.2212 15.489 12.4653C12.734 12.3289 10.2963 10.9884 8.65863 8.94634C8.37273 9.44993 8.20502 10.0263 8.20502 10.6469C8.20502 11.812 8.79602 12.8448 9.67697 13.4428C9.14456 13.4325 8.62226 13.2756 8.17977 13.0284V13.0653C8.17977 14.7002 9.32843 16.0581 10.8347 16.371C10.565 16.4458 10.271 16.4817 9.9659 16.4817C9.75375 16.4817 9.53957 16.4694 9.33853 16.4243C9.76789 17.7566 10.9863 18.7361 12.435 18.7679C11.3075 19.6633 9.87599 20.2028 8.32625 20.2028C8.0545 20.2028 7.79385 20.1904 7.5332 20.1566C9.00111 21.1176 10.7408 21.6663 12.6168 21.6663C18.7147 21.6663 22.0486 16.5381 22.0486 12.093C22.0486 11.9443 22.0435 11.8007 22.0364 11.6581C22.6941 11.1843 23.2467 10.5925 23.6973 9.91147Z" fill="#333333"/>
<path d="M29.7275 15C29.7275 23.0635 23.2904 29.5896 15.3629 29.5896C7.43538 29.5896 0.998307 23.0635 0.998307 15C0.998307 6.93653 7.43538 0.410417 15.3629 0.410417C23.2904 0.410417 29.7275 6.93653 29.7275 15Z" stroke="#333333" stroke-width="0.820833"/>
</svg>
