<svg width="22" height="22" viewBox="0 0 22 22" fill="none" xmlns="http://www.w3.org/2000/svg">
<path fill-rule="evenodd" clip-rule="evenodd" d="M11 22C4.93457 22 0 17.0654 0 11C0 4.93457 4.93457 0 11 0C17.0654 0 22 4.93457 22 11C22 17.0654 17.0654 22 11 22ZM16.7044 14.8642C16.7697 14.8641 16.8322 14.8382 16.8783 14.7921C16.9244 14.746 16.9504 14.6834 16.9504 14.6182V7.71242L11.3538 12.1568C11.2502 12.239 11.125 12.2802 11 12.2802C10.8749 12.2802 10.7498 12.239 10.6462 12.1568L5.04952 7.71242V14.6182C5.0496 14.6834 5.07554 14.746 5.12165 14.7921C5.16777 14.8382 5.23029 14.8641 5.29551 14.8642H16.7044ZM15.8468 7.13578L11 10.9847L6.15317 7.13578H15.8468ZM18.0884 7.38177V14.6183C18.0884 15.3814 17.4675 16.0022 16.7044 16.0022H5.29551C4.53239 16.0022 3.91162 15.3814 3.91162 14.6183V7.38177C3.91162 6.61869 4.53243 5.99788 5.29551 5.99788H16.7044C17.4675 5.99784 18.0884 6.61869 18.0884 7.38177Z" fill="#70B55C"/>
</svg>
