<svg width="28" height="28" viewBox="0 0 28 28" fill="none" xmlns="http://www.w3.org/2000/svg">
<path d="M14 27.9998C21.732 27.9998 28 21.7317 28 13.9998C28 6.26777 21.732 -0.000244141 14 -0.000244141C6.26801 -0.000244141 0 6.26777 0 13.9998C0 21.7317 6.26801 27.9998 14 27.9998Z" fill="#70B55C"/>
<path d="M22.3655 15.1263V20.8982H19.0191V15.5131C19.0191 14.161 18.536 13.2376 17.3244 13.2376C16.3997 13.2376 15.8504 13.8593 15.6079 14.4612C15.5198 14.6763 15.4971 14.9751 15.4971 15.2768V20.898H12.1504C12.1504 20.898 12.1953 11.7774 12.1504 10.8333H15.4973V12.2596C15.4906 12.2708 15.4811 12.2818 15.4751 12.2925H15.4973V12.2596C15.942 11.5753 16.7351 10.597 18.5133 10.597C20.7149 10.597 22.3655 12.0355 22.3655 15.1263ZM8.64954 5.98181C7.5048 5.98181 6.75586 6.73325 6.75586 7.72052C6.75586 8.68683 7.48309 9.45997 8.60562 9.45997H8.62733C9.79454 9.45997 10.5203 8.68683 10.5203 7.72052C10.4981 6.73325 9.79454 5.98181 8.64954 5.98181ZM6.95476 20.8982H10.3002V10.8333H6.95476V20.8982Z" fill="#F1F2F2"/>
</svg>
