<svg width="111" height="89" viewBox="0 0 111 89" fill="none" xmlns="http://www.w3.org/2000/svg">
<g opacity="0.07">
<path d="M83.1508 44.405C77.2445 43.1337 72.6807 40.4094 69.4591 36.2322C66.2375 32.2367 64.6267 27.333 64.6267 21.5213C64.6267 15.7095 66.4165 10.6242 69.996 6.2654C73.5755 2.0882 78.8553 -0.000389099 85.8354 -0.000389099C88.52 -0.000389099 91.3837 0.544464 94.4262 1.63417C97.2899 2.72387 99.885 4.54005 102.212 7.08269C104.538 9.80694 106.507 13.2577 108.118 17.4349C109.55 21.6121 110.266 26.6973 110.266 32.6907C110.266 38.8657 109.281 44.7683 107.313 50.3984C105.344 56.2101 102.659 61.477 99.2586 66.1991C95.8581 71.1027 92.0101 75.4616 87.7146 79.2755C83.4192 83.0895 78.9448 86.2678 74.2914 88.8104L64.0898 74.6443C69.6381 71.5568 74.5599 67.4704 78.8553 62.3851C83.1508 57.2998 85.9249 51.5789 87.1777 45.2223L83.1508 44.405ZM19.7932 44.405C13.887 43.1337 9.32314 40.4094 6.10157 36.2322C2.88 32.2367 1.26922 27.333 1.26922 21.5213C1.26922 15.7095 3.05898 10.6242 6.6385 6.2654C10.218 2.0882 15.4978 -0.000389099 22.4779 -0.000389099C25.1625 -0.000389099 27.9366 0.544464 30.8003 1.63417C33.6639 2.72387 36.259 4.54005 38.5857 7.08269C40.9124 9.80694 42.8811 13.2577 44.4919 17.4349C45.9237 21.6121 46.6396 26.6973 46.6396 32.6907C46.6396 38.8657 45.6553 44.7683 43.6865 50.3984C41.7178 56.2101 39.1227 61.477 35.9011 66.1991C32.5005 71.1027 28.6526 75.4616 24.3571 79.2755C20.0617 83.0895 15.5873 86.2678 10.9339 88.8104L0.732292 74.6443C6.10158 71.5568 11.0234 67.4704 15.4978 62.3851C19.7932 57.2998 22.5674 51.5789 23.8202 45.2223L19.7932 44.405Z" fill="#70B55C"/>
</g>
</svg>
