<svg width="45" height="45" viewBox="0 0 45 45" fill="none" xmlns="http://www.w3.org/2000/svg">
<circle opacity="0.1" cx="22.5" cy="22.5" r="22.5" fill="white"/>
<path d="M18.125 29H15.2188V19.6562H18.125V29ZM16.6562 18.4062C15.75 18.4062 15 17.625 15 16.6875C15 15.7812 15.75 15.0312 16.6562 15.0312C17.5938 15.0312 18.3438 15.7812 18.3438 16.6875C18.3438 17.625 17.5938 18.4062 16.6562 18.4062ZM28.9688 29H26.0938V24.4688C26.0938 23.375 26.0625 22 24.5625 22C23.0625 22 22.8438 23.1562 22.8438 24.375V29H19.9375V19.6562H22.7188V20.9375H22.75C23.1562 20.2188 24.0938 19.4375 25.5 19.4375C28.4375 19.4375 29 21.375 29 23.875V29H28.9688Z" fill="white"/>
</svg>
