<svg width="22" height="22" viewBox="0 0 22 22" fill="none" xmlns="http://www.w3.org/2000/svg">
<path fill-rule="evenodd" clip-rule="evenodd" d="M11 22C4.92583 22 0 17.0742 0 11C0 4.92583 4.92583 0 11 0C17.0742 0 22 4.92583 22 11C22 17.0742 17.0742 22 11 22ZM11 3.84515C14.0091 3.84515 16.4485 6.28446 16.4485 9.29361C16.4485 12.3027 11 18.1548 11 18.1548C11 18.1548 5.55154 12.3027 5.55154 9.29361C5.55154 6.28446 7.99085 3.84515 11 3.84515ZM11 7.12887C12.1409 7.12887 13.0661 8.05408 13.0661 9.19505C13.0661 10.3359 12.1409 11.2611 11 11.2611C9.85912 11.2611 8.93391 10.3359 8.93391 9.19505C8.93391 8.05408 9.85912 7.12887 11 7.12887Z" fill="#70B55C"/>
</svg>
