<svg width="28" height="28" viewBox="0 0 28 28" fill="none" xmlns="http://www.w3.org/2000/svg">
<path fill-rule="evenodd" clip-rule="evenodd" d="M14 28C6.28037 28 0 21.7196 0 14C0 6.28037 6.28037 0 14 0C21.7196 0 28 6.28037 28 14C28 21.7196 21.7196 28 14 28ZM21.2602 18.9181C21.3432 18.918 21.4228 18.885 21.4815 18.8263C21.5402 18.7676 21.5732 18.688 21.5733 18.605V9.8158L14.4502 15.4722C14.3184 15.577 14.1591 15.6293 13.9999 15.6293C13.8407 15.6293 13.6815 15.5769 13.5496 15.4722L6.42666 9.8158V18.605C6.42676 18.688 6.45978 18.7676 6.51847 18.8263C6.57716 18.885 6.65674 18.918 6.73974 18.9181H21.2602ZM20.1686 9.0819L14 13.9805L7.8313 9.0819H20.1686ZM23.0216 9.39498V18.6051C23.0216 19.5763 22.2314 20.3665 21.2602 20.3665H6.73974C5.76849 20.3665 4.97842 19.5763 4.97842 18.6051V9.39498C4.97842 8.42379 5.76855 7.63366 6.73974 7.63366H21.2602C22.2314 7.63361 23.0216 8.42379 23.0216 9.39498Z" fill="#70B55C"/>
</svg>
