<svg width="14" height="14" viewBox="0 0 14 14" fill="none" xmlns="http://www.w3.org/2000/svg">
<g clip-path="url(#clip0_73_265)">
<path d="M5.75179 6.74384C6.67825 6.74384 7.48051 6.41154 8.13602 5.75592C8.79153 5.10044 9.12381 4.29839 9.12381 3.37183C9.12381 2.44553 8.79153 1.64341 8.13591 0.98768C7.48029 0.33228 6.67814 0 5.75179 0C4.8252 0 4.02313 0.33228 3.36765 0.987789C2.71216 1.6433 2.37975 2.44545 2.37975 3.37183C2.37975 4.29839 2.71214 5.10055 3.36775 5.75606C4.02337 6.41146 4.82553 6.74384 5.75179 6.74384ZM11.6519 10.7653C11.633 10.4925 11.5948 10.1949 11.5385 9.88068C11.4817 9.56407 11.4085 9.26479 11.3209 8.99125C11.2304 8.70851 11.1074 8.42933 10.9553 8.16175C10.7974 7.88405 10.612 7.64222 10.4039 7.44324C10.1864 7.23507 9.91997 7.0677 9.61192 6.94559C9.30496 6.82418 8.96475 6.76266 8.60086 6.76266C8.45794 6.76266 8.31974 6.82128 8.05281 6.99508C7.86307 7.11863 7.67277 7.24131 7.48191 7.36312C7.29851 7.47999 7.05007 7.58947 6.74319 7.68859C6.4438 7.78547 6.13983 7.83461 5.83978 7.83461C5.53977 7.83461 5.23587 7.78547 4.93616 7.68859C4.62964 7.58956 4.38119 7.4801 4.19799 7.36323C3.98553 7.22747 3.7933 7.10358 3.62656 6.99494C3.35996 6.82117 3.22163 6.76252 3.07873 6.76252C2.71471 6.76252 2.37463 6.82415 2.06776 6.94572C1.75992 7.06759 1.49343 7.23496 1.27564 7.44335C1.06769 7.64244 0.882163 7.88413 0.7245 8.16175C0.572524 8.42931 0.449477 8.7084 0.358888 8.99136C0.271388 9.2649 0.198244 9.56407 0.141424 9.88068C0.0851233 10.1945 0.0468969 10.4922 0.0279751 10.7656C0.00915232 11.0408 -0.00017741 11.3165 2.55428e-06 11.5923C2.55428e-06 12.3231 0.232314 12.9147 0.690429 13.3511C1.14288 13.7816 1.74155 14.0001 2.46957 14.0001H9.21065C9.93868 14.0001 10.5371 13.7817 10.9897 13.3511C11.4479 12.9151 11.6802 12.3233 11.6802 11.5922C11.6801 11.3101 11.6706 11.0319 11.6519 10.7653Z" fill="#70B55C"/>
</g>
<defs>
<clipPath id="clip0_73_265">
<rect width="14" height="14" fill="white"/>
</clipPath>
</defs>
</svg>
