<svg width="25" height="25" viewBox="0 0 25 25" fill="none" xmlns="http://www.w3.org/2000/svg">
<path d="M23.4373 12.5C23.4376 12.6026 23.4175 12.7043 23.3782 12.7991C23.3389 12.8939 23.2812 12.98 23.2084 13.0523L15.3959 20.8648C15.2486 21.0072 15.0512 21.0859 14.8464 21.0841C14.6416 21.0823 14.4456 21.0002 14.3008 20.8553C14.1559 20.7105 14.0737 20.5145 14.072 20.3097C14.0702 20.1048 14.1489 19.9075 14.2912 19.7602L21.5514 12.5L14.2912 5.23984C14.1489 5.0925 14.0702 4.89515 14.072 4.69031C14.0737 4.48547 14.1559 4.28952 14.3008 4.14467C14.4456 3.99982 14.6416 3.91766 14.8464 3.91588C15.0512 3.9141 15.2486 3.99285 15.3959 4.13516L23.2084 11.9477C23.2812 12.02 23.3389 12.1061 23.3782 12.2009C23.4175 12.2957 23.4376 12.3974 23.4373 12.5ZM19.5311 12.5C19.5314 12.3974 19.5113 12.2957 19.472 12.2009C19.4327 12.1061 19.375 12.02 19.3022 11.9477L11.4897 4.13516C11.3432 3.98863 11.1445 3.90629 10.9373 3.90625H2.34358C2.18909 3.90628 2.03808 3.95212 1.90963 4.03797C1.78119 4.12381 1.68108 4.24582 1.62196 4.38855C1.56284 4.53129 1.54737 4.68834 1.5775 4.83987C1.60763 4.99139 1.68201 5.13058 1.79124 5.23984L9.0514 12.5L1.79124 19.7602C1.68201 19.8694 1.60763 20.0086 1.5775 20.1601C1.54737 20.3117 1.56284 20.4687 1.62196 20.6114C1.68108 20.7542 1.78119 20.8762 1.90963 20.962C2.03808 21.0479 2.18909 21.0937 2.34358 21.0938H10.9373C11.1445 21.0937 11.3432 21.0114 11.4897 20.8648L19.3022 13.0523C19.375 12.98 19.4327 12.8939 19.472 12.7991C19.5113 12.7043 19.5314 12.6026 19.5311 12.5Z" fill="#70B55C"/>
</svg>
