<svg width="45" height="45" viewBox="0 0 45 45" fill="none" xmlns="http://www.w3.org/2000/svg">
<circle opacity="0.1" cx="22.5" cy="22.5" r="22.5" fill="white"/>
<path d="M20.25 22.4375C21.5938 22.8125 22.25 23.8438 22.25 25.2188C22.25 27.4688 20.375 28.4375 18.3438 28.4375H13V17.375H18.2188C20.0938 17.375 21.75 17.9062 21.75 20.125C21.75 21.2188 21.2188 21.9375 20.25 22.4375ZM15.4062 19.25V21.8438H17.875C18.75 21.8438 19.375 21.4688 19.375 20.5312C19.375 19.5 18.5938 19.25 17.7188 19.25H15.4062ZM18.0312 26.5625C19 26.5625 19.8125 26.2188 19.8125 25.0938C19.8125 23.9688 19.1562 23.5 18.0625 23.5H15.4062V26.5625H18.0312ZM29.2188 19.0312H24.75V17.9375H29.2188V19.0312ZM31 24.5625C31 24.6875 30.9688 24.8438 30.9688 24.9688H25.1875C25.1875 26.25 25.875 27 27.1562 27C27.8125 27 28.6875 26.6562 28.9062 25.9688H30.8438C30.25 27.7812 29 28.6562 27.0938 28.6562C24.5625 28.6562 22.9688 26.9375 22.9688 24.4375C22.9688 22.0312 24.625 20.1875 27.0938 20.1875C29.5938 20.1875 31 22.1875 31 24.5625ZM25.1875 23.5625H28.7812C28.6875 22.5 28.125 21.875 27 21.875C25.9688 21.875 25.25 22.5312 25.1875 23.5625Z" fill="white"/>
</svg>
