<svg width="16" height="16" viewBox="0 0 16 16" fill="none" xmlns="http://www.w3.org/2000/svg">
<g clip-path="url(#clip0_73_209)">
<path d="M15.9583 5.82503C15.9071 5.66648 15.8104 5.52649 15.6802 5.42251C15.5501 5.31854 15.3922 5.25518 15.2262 5.24033L10.6082 4.82097L8.78209 0.546803C8.6474 0.233576 8.34077 0.0308838 8.00007 0.0308838C7.65937 0.0308838 7.35271 0.233608 7.21808 0.547584L5.39197 4.821L0.7732 5.24033C0.607451 5.25551 0.449802 5.31901 0.3198 5.42294C0.189799 5.52688 0.0931609 5.66669 0.0418688 5.82503C-0.0634776 6.14904 0.0338061 6.50439 0.290531 6.7284L3.78125 9.78973L2.75191 14.3239C2.67659 14.6573 2.80597 15.0019 3.0826 15.2019C3.23126 15.3093 3.40524 15.364 3.58065 15.364C3.7319 15.364 3.8819 15.3232 4.01659 15.2426L8.00007 12.8618L11.9821 15.2426C12.2735 15.418 12.6408 15.4019 12.9168 15.2019C13.0519 15.1041 13.1553 14.9687 13.2141 14.8126C13.2729 14.6565 13.2845 14.4865 13.2475 14.3239L12.2182 9.78973L15.7089 6.72902C15.8345 6.61935 15.925 6.4752 15.9694 6.31449C16.0137 6.15377 16.0099 5.98357 15.9583 5.82503Z" fill="#FFC107"/>
</g>
<defs>
<clipPath id="clip0_73_209">
<rect width="16" height="16" fill="white"/>
</clipPath>
</defs>
</svg>
